Coordinates
version=1
nRows=10
nColumns=40
inDegrees=yes

Units are S.I. units (second, meters, Newtons, ...)
Angles are in degrees.

endheader
time	pelvis_tilt	pelvis_list	pelvis_rotation	pelvis_tx	pelvis_ty	pelvis_tz	hip_flexion_r	hip_adduction_r	hip_rotation_r	knee_angle_r	knee_angle_r_beta	ankle_angle_r	subtalar_angle_r	mtp_angle_r	hip_flexion_l	hip_adduction_l	hip_rotation_l	knee_angle_l	knee_angle_l_beta	ankle_angle_l	subtalar_angle_l	mtp_angle_l	lumbar_extension	lumbar_bending	lumbar_rotation	arm_flex_r	arm_add_r	arm_rot_r	elbow_flex_r	pro_sup_r	wrist_flex_r	wrist_dev_r	arm_flex_l	arm_add_l	arm_rot_l	elbow_flex_l	pro_sup_l	wrist_flex_l	wrist_dev_l
     16.95500000	     -3.21570047	     -3.03031389	     -4.21948974	      1.02338487	      0.93199231	      0.45419981	     25.64450481	     -1.59910251	    -10.12621039	     16.49381351	     16.49381351	      2.95585620	      5.05181504	      5.20441161	      4.03042792	     -3.51873534	    -11.91487885	     14.14451410	     14.14451410	     15.26414804	     -3.50808843	     -6.22562933	    -11.56171821	      1.74103328	     -0.13344640	     -7.28477585	    -13.02002483	     -1.48690391	     36.55123323	     45.82853261	      0.00000000	      0.00000000	     14.68109413	    -14.74836967	     -3.41283021	     53.19276580	     45.91375900	      0.00000000	      0.00000000
     16.96850000	     -3.26844250	     -2.94824570	     -4.27592885	      1.02448605	      0.93132027	      0.45573798	     25.18403418	     -1.41695432	    -10.68591724	     15.71788059	     15.71788059	      2.89178355	      5.58853220	      5.61624981	      3.35963860	     -3.45473416	    -12.07829411	     13.65642913	     13.65642913	     15.39538521	     -3.23679969	     -6.55927353	    -11.40903484	      1.75377120	     -0.15902364	     -6.73862703	    -13.15616707	     -1.26131374	     37.01531970	     45.79989606	      0.00000000	      0.00000000	     14.66835910	    -14.61488810	     -3.37801192	     53.05388091	     45.91972108	      0.00000000	      0.00000000
     16.98200000	     -3.30118222	     -2.92151483	     -4.29647414	      1.02586333	      0.93059702	      0.45742856	     24.71196715	     -1.19970775	    -11.20315855	     15.30777057	     15.30777057	      2.84891908	      5.76330072	      5.73082547	      2.65698877	     -3.46242126	    -12.19546178	     13.18757677	     13.18757677	     15.61776423	     -2.92892904	     -6.75985089	    -11.23752951	      1.80131701	     -0.20415821	     -6.18390063	    -13.32175272	     -1.15848776	     37.46117379	     45.77961271	      0.00000000	      0.00000000	     14.53024807	    -14.48976970	     -3.32934445	     52.89755540	     45.92100559	      0.00000000	      0.00000000
     16.99550000	     -3.44836103	     -2.82683646	     -4.27309527	      1.02738665	      0.92952224	      0.45923692	     24.45757424	     -1.08388579	    -11.57112070	     15.32920552	     15.32920552	      2.91069698	      5.56182367	      5.70638085	      2.28886615	     -3.44790423	    -12.20613150	     13.12904315	     13.12904315	     15.95778690	     -2.95693902	     -6.87028507	    -10.86625239	      1.72212766	     -0.04822324	     -5.83358398	    -13.39494544	     -1.17111266	     37.61222253	     45.77686214	      0.00000000	      0.00000000	     14.45708697	    -14.38026740	     -3.29706008	     52.87816935	     45.91804991	      0.00000000	      0.00000000
     17.00900000	     -3.24543926	     -2.90062415	     -4.25072374	      1.02944907	      0.92912767	      0.46114338	     23.67698413	     -0.81704984	    -11.92086149	     15.33526564	     15.33526564	      2.84630778	      5.35013144	      5.12470733	      1.13717098	     -3.53814312	    -12.36387278	     12.39672044	     12.39672044	     16.25454706	     -2.27692143	     -6.68223618	    -10.89573276	      1.95776482	     -0.39878414	     -5.00501508	    -13.62977167	     -1.23248997	     38.41758569	     45.75353663	      0.00000000	      0.00000000	     14.02076509	    -14.27714605	     -3.21004813	     52.51317778	     45.91359710	      0.00000000	      0.00000000
     17.02250000	     -3.31916969	     -2.95788835	     -4.17223411	      1.03138010	      0.92812082	      0.46305718	     23.29475329	     -0.61105557	    -12.20289377	     15.62399005	     15.62399005	      3.05291015	      5.04255822	      4.84921974	      0.65965515	     -3.68763814	    -12.22220102	     12.33407590	     12.33407590	     16.68852208	     -2.24288080	     -6.71288054	    -10.63800248	      2.17068510	     -0.21936400	     -4.47291566	    -13.83108060	     -1.29163103	     38.67890519	     45.75030441	      0.00000000	      0.00000000	     13.71351862	    -13.98217739	     -3.12204613	     52.40597691	     45.90380879	      0.00000000	      0.00000000
     17.03600000	     -3.18663872	     -3.10361922	     -4.08201934	      1.03356615	      0.92740972	      0.46514535	     22.79773221	     -0.35399778	    -12.34749348	     16.21212083	     16.21212083	      3.28270971	      4.52020966	      4.28866685	     -0.03467700	     -3.94023377	    -12.16508582	     12.32993155	     12.32993155	     17.11137460	     -2.24469589	     -6.50344322	    -10.56927115	      2.47765815	     -0.28588327	     -3.87277428	    -14.10977053	     -1.42550533	     39.08810585	     45.74574166	      0.00000000	      0.00000000	     13.31700689	    -13.78838200	     -3.03999263	     52.17107623	     45.89380163	      0.00000000	      0.00000000
     17.04950000	     -3.07153149	     -3.12697198	     -3.97234395	      1.03581570	      0.92664405	      0.46743967	     22.16759460	     -0.05959315	    -11.79435820	     16.31477480	     16.31477480	      1.95093317	      2.73501973	     -0.80571792	     -0.38038864	     -4.17256329	    -12.14136778	     13.10444227	     13.10444227	     19.21645018	     -1.54992062	     -2.61666424	    -10.49011547	      2.63683128	     -0.35352468	     -3.71481287	    -14.33523070	     -2.02849525	     41.01519120	     45.69997442	      0.00000000	      0.00000000	     12.85745443	    -13.71309080	     -3.27433214	     51.86202359	     45.95817353	      0.00000000	      0.00000000
     17.06300000	     -2.89735587	     -3.28644124	     -3.84013128	      1.03806720	      0.92611847	      0.46970174	     21.69398412	      0.16461737	    -11.83291858	     17.00604268	     17.00604268	      2.46425411	      2.37042703	     -1.22732631	     -0.85592566	     -4.50966062	    -11.92950078	     13.57301515	     13.57301515	     19.57311271	     -1.83506717	     -2.60862688	    -10.49141236	      2.96263590	     -0.21902658	     -3.03109412	    -14.58168002	     -2.14775383	     41.26234712	     45.70132289	      0.00000000	      0.00000000	     12.38525476	    -13.42912309	     -3.15320978	     51.58517549	     45.94317494	      0.00000000	      0.00000000
     17.07650000	     -2.80835406	     -3.43566175	     -3.64087755	      1.03998355	      0.92548023	      0.47205243	     21.48544341	      0.38168771	    -11.61958509	     17.91824496	     17.91824496	      2.96311535	      1.52577795	     -1.87936550	     -0.79379953	     -4.92093499	    -11.37096275	     14.81566430	     14.81566430	     20.09930998	     -2.63302911	     -2.30720086	    -10.42494513	      3.26723050	     -0.34464030	     -2.21038267	    -14.76347787	     -2.35912079	     41.68302121	     45.70128079	      0.00000000	      0.00000000	     11.94610574	    -13.43685967	     -3.09900885	     51.12632756	     45.93637792	      0.00000000	      0.00000000
